# xmcd
#
# Track frame offsets:
#	182
#	11022
#	38682
#	62130
#	63992
#	79375
#	100552
#	120460
#	122712
#	142907
#	168930
#	178257
#	181145
#	207700
#
# Disc length: 3076 seconds
#
# Revision: 0
# Processed by: cddbd v1.5.2PL0 Copyright (c) Steve Scherf et al.
# Submitted via: EZCDAudioConverter 1.2.3.1
#
DISCID=bd0c020e
DTITLE=De Kiruza - Bakán
DYEAR=1996
DGENRE=Pop
TTITLE0=Deja tu mensaje
TTITLE1=De Kiruza
TTITLE2=A eme o erre
TTITLE3=Pichintún de swing
TTITLE4=Luna
TTITLE5=Origen
TTITLE6=A eternidade
TTITLE7=Cháchara en pungazz
TTITLE8=Bakán
TTITLE9=Temporal
TTITLE10=Tremendo swing
TTITLE11=Buscándote
TTITLE12=Cuando eras mía
TTITLE13=Continente X
EXTD=
EXTT0=
EXTT1=
EXTT2=
EXTT3=
EXTT4=
EXTT5=
EXTT6=
EXTT7=
EXTT8=
EXTT9=
EXTT10=
EXTT11=
EXTT12=
EXTT13=
PLAYORDER=
